<svg xmlns="http://www.w3.org/2000/svg" viewBox="0 0 1440 900">
  <defs>
    <linearGradient id="bg" x1="0%" y1="0%" x2="100%" y2="100%">
      <stop offset="0%" stop-color="#090707" />
      <stop offset="100%" stop-color="#18110b" />
    </linearGradient>
    <linearGradient id="gold" x1="0%" y1="0%" x2="100%" y2="100%">
      <stop offset="0%" stop-color="#f1d277" />
      <stop offset="100%" stop-color="#d4af37" />
    </linearGradient>
  </defs>
  <rect width="1440" height="900" fill="url(#bg)" />
  <circle cx="340" cy="120" r="220" fill="#d4af37" opacity="0.08" />
  <rect x="32" y="24" width="1376" height="72" rx="36" fill="#14100d" stroke="#4d3b14" />
  <rect x="60" y="40" width="44" height="44" rx="14" fill="url(#gold)" />
  <text x="82" y="69" text-anchor="middle" font-family="Georgia, serif" font-size="26" fill="#16110d" font-weight="700">E</text>
  <text x="124" y="62" font-family="Arial, sans-serif" font-size="24" fill="#f7f3ee" font-weight="700">EliteCuts</text>
  <text x="124" y="82" font-family="Arial, sans-serif" font-size="11" fill="#b9b3a7" letter-spacing="3">BARBER CO.</text>
  <rect x="470" y="36" width="500" height="48" rx="24" fill="#1b1713" stroke="#2f261e" />
  <text x="525" y="66" font-family="Arial, sans-serif" font-size="15" fill="#d4af37">Home</text>
  <text x="610" y="66" font-family="Arial, sans-serif" font-size="15" fill="#b9b3a7">Services</text>
  <text x="710" y="66" font-family="Arial, sans-serif" font-size="15" fill="#b9b3a7">Gallery</text>
  <text x="800" y="66" font-family="Arial, sans-serif" font-size="15" fill="#b9b3a7">Barbers</text>
  <text x="890" y="66" font-family="Arial, sans-serif" font-size="15" fill="#b9b3a7">Book</text>
  <rect x="1240" y="38" width="116" height="44" rx="22" fill="#171311" stroke="#4d3b14" />
  <text x="1298" y="66" text-anchor="middle" font-family="Arial, sans-serif" font-size="16" fill="#d4af37">Toggle</text>
  <text x="110" y="185" font-family="Arial, sans-serif" font-size="13" fill="#d4af37" letter-spacing="5">LUXURY GROOMING STUDIO</text>
  <text x="110" y="290" font-family="Georgia, serif" font-size="78" fill="#f7f3ee" font-weight="700">Precision.</text>
  <text x="110" y="368" font-family="Georgia, serif" font-size="78" fill="#f7f3ee" font-weight="700">Comfort.</text>
  <text x="110" y="446" font-family="Georgia, serif" font-size="78" fill="#f7f3ee" font-weight="700">Signature Style.</text>
  <text x="110" y="505" font-family="Arial, sans-serif" font-size="22" fill="#d2cbc0">A polished luxury barber landing page with rich contrast, gold accents,</text>
  <text x="110" y="538" font-family="Arial, sans-serif" font-size="22" fill="#d2cbc0">responsive layout sections, slider interactions, and dark mode styling.</text>
  <rect x="110" y="585" width="180" height="56" rx="28" fill="url(#gold)" />
  <text x="200" y="620" text-anchor="middle" font-family="Arial, sans-serif" font-size="18" fill="#14100d" font-weight="700">Reserve a Chair</text>
  <rect x="310" y="585" width="170" height="56" rx="28" fill="#1b1713" stroke="#d4af37" />
  <text x="395" y="620" text-anchor="middle" font-family="Arial, sans-serif" font-size="18" fill="#d4af37" font-weight="700">View Services</text>
  <rect x="860" y="170" width="470" height="610" rx="34" fill="#14100d" stroke="#31271d" />
  <rect x="900" y="212" width="390" height="250" rx="24" fill="#221b15" />
  <rect x="900" y="500" width="182" height="112" rx="22" fill="#171311" stroke="#32281f" />
  <rect x="1108" y="500" width="182" height="112" rx="22" fill="#171311" stroke="#32281f" />
  <rect x="900" y="636" width="390" height="112" rx="22" fill="#171311" stroke="#32281f" />
  <text x="920" y="530" font-family="Arial, sans-serif" font-size="15" fill="#d4af37">Signature Cut</text>
  <text x="920" y="560" font-family="Arial, sans-serif" font-size="26" fill="#f7f3ee" font-weight="700">$35</text>
  <text x="1128" y="530" font-family="Arial, sans-serif" font-size="15" fill="#d4af37">Beard Trim</text>
  <text x="1128" y="560" font-family="Arial, sans-serif" font-size="26" fill="#f7f3ee" font-weight="700">$25</text>
  <text x="922" y="670" font-family="Arial, sans-serif" font-size="15" fill="#d4af37">Featured Team Copy</text>
  <text x="922" y="705" font-family="Arial, sans-serif" font-size="22" fill="#f7f3ee" font-weight="700">Centered premium profile card</text>
  <text x="80" y="846" font-family="Arial, sans-serif" font-size="16" fill="#b9b3a7">Dark Mode Preview</text>
</svg>
